<?xml version="1.0" encoding="UTF-8" ?>
<!DOCTYPE svg PUBLIC "-//W3C//DTD SVG 1.1//EN" "http://www.w3.org/Graphics/SVG/1.1/DTD/svg11.dtd">
<svg width="1000pt" height="1000pt" viewBox="0 0 1000 1000" version="1.1" xmlns="http://www.w3.org/2000/svg">
<path fill="#ffffff" d=" M 0.00 0.00 L 1000.00 0.00 L 1000.00 1000.00 L 438.70 1000.00 C 448.23 998.24 456.31 992.40 464.33 987.31 C 483.45 974.10 500.90 958.56 516.96 941.77 C 527.66 930.34 537.72 918.24 546.27 905.09 C 552.49 895.23 558.14 884.63 560.13 873.02 C 561.33 862.41 561.42 851.70 561.49 841.03 C 561.75 812.69 561.53 784.35 561.48 756.00 C 561.37 744.99 561.66 733.95 560.79 722.95 C 559.48 702.04 555.69 681.34 550.43 661.07 C 544.88 640.61 537.82 620.40 527.40 601.87 C 522.85 593.81 517.50 586.13 510.83 579.66 C 527.23 575.04 543.68 569.96 558.59 561.55 C 562.81 559.31 566.83 556.73 570.93 554.30 C 596.45 568.71 622.14 582.83 647.39 597.69 C 651.60 599.92 654.86 603.44 657.79 607.12 C 680.96 635.63 702.39 665.63 727.62 692.42 C 732.11 697.32 737.25 701.56 742.24 705.93 C 746.60 713.56 753.08 719.63 759.23 725.79 C 770.32 736.75 782.09 747.01 794.34 756.65 C 800.80 761.36 807.21 766.57 814.91 769.07 C 816.19 769.66 817.33 768.59 818.50 768.26 C 817.77 762.18 813.53 757.42 810.10 752.63 C 795.04 733.58 777.66 716.56 761.37 698.60 C 758.95 695.96 756.27 693.46 754.72 690.18 C 749.25 677.40 742.41 665.26 735.69 653.11 C 726.77 637.30 717.44 621.72 707.44 606.58 C 700.90 597.25 694.69 587.45 685.79 580.14 C 661.56 559.49 634.11 543.11 606.76 527.00 C 618.01 517.67 629.31 508.40 639.80 498.21 C 657.79 511.04 678.02 520.79 699.41 526.42 C 715.55 530.60 732.43 532.79 749.05 530.65 C 753.34 531.04 757.28 533.01 761.21 534.66 C 772.22 539.66 783.26 544.67 794.77 548.44 C 822.38 557.78 851.87 560.91 880.88 559.04 C 891.60 558.49 902.24 556.92 912.89 555.57 C 931.99 553.04 951.05 550.07 969.96 546.31 C 977.32 544.76 984.69 543.09 991.81 540.61 C 994.66 539.48 997.80 538.50 999.85 536.07 C 1000.62 533.36 997.77 532.18 995.72 531.55 C 986.70 529.10 977.25 529.64 968.00 529.63 C 943.21 530.75 918.39 533.06 894.00 537.72 C 861.70 529.52 829.01 522.71 796.51 515.25 C 787.86 513.06 778.94 511.55 770.82 507.70 C 736.21 491.96 700.23 479.22 663.44 469.69 C 670.12 457.48 675.00 444.04 675.74 430.04 C 675.92 422.62 676.06 415.13 674.54 407.83 C 673.67 402.06 671.55 396.61 669.98 391.02 C 679.89 400.51 690.45 410.47 704.07 414.12 C 714.71 416.80 725.93 413.21 734.21 406.32 C 742.72 399.13 750.11 390.73 757.38 382.32 C 775.35 361.11 790.45 337.32 800.77 311.46 C 819.21 317.37 838.12 321.60 857.00 325.82 C 863.93 327.37 870.97 328.59 877.70 330.97 C 880.27 331.91 883.23 332.28 885.77 330.98 C 890.41 328.58 893.25 323.94 895.74 319.54 C 901.56 308.36 904.39 295.99 907.87 283.96 C 913.22 263.86 918.22 243.60 921.13 222.99 C 921.71 217.37 922.43 211.61 921.48 206.01 C 921.12 205.51 920.40 204.52 920.05 204.03 C 913.18 210.17 909.34 218.73 904.69 226.50 C 895.24 244.17 886.78 262.44 880.76 281.58 C 878.00 290.67 875.71 300.06 875.80 309.63 C 856.28 295.32 832.95 287.08 809.19 283.29 C 811.17 269.97 812.95 256.33 810.50 242.93 C 807.71 224.03 796.78 205.66 779.50 196.73 C 760.34 186.38 737.49 186.86 716.64 190.76 C 713.17 171.71 707.97 152.67 698.04 135.88 C 695.85 131.67 692.77 127.98 690.79 123.66 C 700.22 124.17 709.45 121.74 718.41 119.09 C 737.71 113.04 756.16 104.54 773.98 95.03 C 781.59 90.46 790.10 86.76 795.99 79.88 C 794.50 78.82 792.81 78.04 790.95 78.14 C 782.20 77.78 773.55 79.32 764.95 80.69 C 742.82 84.75 720.99 90.32 699.40 96.63 C 691.95 98.92 684.52 101.57 677.83 105.63 C 674.10 108.00 670.28 110.86 668.65 115.13 C 667.10 119.86 670.24 124.28 671.07 128.83 C 676.43 152.43 681.21 176.22 688.60 199.30 C 655.23 212.59 625.36 233.73 599.95 258.96 C 592.08 266.59 584.91 276.51 585.11 287.95 C 584.73 296.12 588.24 303.85 592.58 310.57 C 597.17 317.74 603.12 323.87 608.95 330.02 C 591.13 323.64 571.40 322.00 553.05 327.14 C 544.97 329.16 537.51 332.92 530.09 336.61 C 522.17 303.54 510.48 271.46 497.04 240.26 C 493.82 232.52 489.71 225.10 487.78 216.88 C 478.83 180.00 471.75 142.65 462.30 105.90 C 466.91 81.86 469.22 57.40 470.36 32.98 C 470.41 23.60 470.87 14.07 468.63 4.88 C 468.10 3.22 467.54 1.34 466.05 0.30 C 463.38 -0.88 462.02 2.26 461.02 4.12 C 457.38 12.31 455.64 21.16 453.68 29.86 C 449.20 52.41 445.82 75.18 443.01 97.99 C 439.41 124.48 439.31 151.61 444.43 177.91 C 448.03 197.45 454.90 216.22 463.30 234.18 C 465.56 239.65 468.69 245.00 469.31 250.97 C 467.22 267.58 469.41 284.44 473.57 300.57 C 479.19 321.97 488.97 342.19 501.83 360.17 C 492.05 370.79 482.08 381.23 473.16 392.58 C 472.99 392.59 472.65 392.60 472.48 392.61 C 462.27 375.27 452.11 357.88 440.56 341.38 C 432.13 329.33 423.50 317.24 412.83 307.04 C 401.35 297.31 388.50 289.37 375.81 281.34 C 355.17 268.88 334.36 256.55 312.49 246.34 C 306.47 244.36 302.42 239.33 297.79 235.33 C 281.29 220.08 265.39 204.14 247.85 190.07 C 242.90 186.50 238.02 181.99 231.69 181.30 C 231.38 182.52 230.36 183.76 230.99 185.06 C 233.28 192.03 237.92 197.88 242.12 203.78 C 252.68 217.45 264.09 230.47 276.37 242.63 C 281.87 248.23 287.50 253.84 294.35 257.77 C 302.83 268.18 312.76 277.29 322.99 285.96 C 339.87 300.57 357.61 314.14 375.20 327.89 C 383.26 334.39 391.80 340.39 399.18 347.69 C 405.74 357.61 411.36 368.15 417.24 378.49 C 426.77 395.28 435.94 412.28 445.47 429.08 C 436.69 442.76 429.64 457.56 425.01 473.15 C 423.35 478.38 422.08 483.73 420.31 488.92 C 407.25 475.58 390.01 467.41 372.95 460.44 C 340.10 447.74 305.20 440.21 270.02 438.50 C 239.02 438.17 208.01 438.29 177.01 438.25 C 162.66 438.42 148.29 438.06 133.96 438.96 C 117.49 439.60 102.65 448.05 89.44 457.24 C 71.21 469.75 55.16 485.11 40.08 501.20 C 27.85 514.85 16.03 529.03 6.71 544.87 C 3.91 549.79 1.13 554.86 0.00 560.47 L 0.00 0.00 Z" />
<path fill="#040404" d=" M 461.02 4.12 C 462.02 2.26 463.38 -0.88 466.05 0.30 C 467.54 1.34 468.10 3.22 468.63 4.88 C 470.87 14.07 470.41 23.60 470.36 32.98 C 469.22 57.40 466.91 81.86 462.30 105.90 C 471.75 142.65 478.83 180.00 487.78 216.88 C 489.71 225.10 493.82 232.52 497.04 240.26 C 510.48 271.46 522.17 303.54 530.09 336.61 C 537.51 332.92 544.97 329.16 553.05 327.14 C 571.40 322.00 591.13 323.64 608.95 330.02 C 603.12 323.87 597.17 317.74 592.58 310.57 C 588.24 303.85 584.73 296.12 585.11 287.95 C 584.91 276.51 592.08 266.59 599.95 258.96 C 625.36 233.73 655.23 212.59 688.60 199.30 C 681.21 176.22 676.43 152.43 671.07 128.83 C 670.24 124.28 667.10 119.86 668.65 115.13 C 670.28 110.86 674.10 108.00 677.83 105.63 C 684.52 101.57 691.95 98.92 699.40 96.63 C 720.99 90.32 742.82 84.75 764.95 80.69 C 773.55 79.32 782.20 77.78 790.95 78.14 C 792.81 78.04 794.50 78.82 795.99 79.88 C 790.10 86.76 781.59 90.46 773.98 95.03 C 756.16 104.54 737.71 113.04 718.41 119.09 C 709.45 121.74 700.22 124.17 690.79 123.66 C 692.77 127.98 695.85 131.67 698.04 135.88 C 707.97 152.67 713.17 171.71 716.64 190.76 C 737.49 186.86 760.34 186.38 779.50 196.73 C 796.78 205.66 807.71 224.03 810.50 242.93 C 812.95 256.33 811.17 269.97 809.19 283.29 C 832.95 287.08 856.28 295.32 875.80 309.63 C 875.71 300.06 878.00 290.67 880.76 281.58 C 886.78 262.44 895.24 244.17 904.69 226.50 C 909.34 218.73 913.18 210.17 920.05 204.03 C 920.40 204.52 921.12 205.51 921.48 206.01 C 922.43 211.61 921.71 217.37 921.13 222.99 C 918.22 243.60 913.22 263.86 907.87 283.96 C 904.39 295.99 901.56 308.36 895.74 319.54 C 893.25 323.94 890.41 328.58 885.77 330.98 C 883.23 332.28 880.27 331.91 877.70 330.97 C 870.97 328.59 863.93 327.37 857.00 325.82 C 838.12 321.60 819.21 317.37 800.77 311.46 C 790.45 337.32 775.35 361.11 757.38 382.32 C 750.11 390.73 742.72 399.13 734.21 406.32 C 725.93 413.21 714.71 416.80 704.07 414.12 C 690.45 410.47 679.89 400.51 669.98 391.02 C 671.55 396.61 673.67 402.06 674.54 407.83 C 676.06 415.13 675.92 422.62 675.74 430.04 C 675.00 444.04 670.12 457.48 663.44 469.69 C 700.23 479.22 736.21 491.96 770.82 507.70 C 778.94 511.55 787.86 513.06 796.51 515.25 C 829.01 522.71 861.70 529.52 894.00 537.72 C 918.39 533.06 943.21 530.75 968.00 529.63 C 977.25 529.64 986.70 529.10 995.72 531.55 C 997.77 532.18 1000.62 533.36 999.85 536.07 C 997.80 538.50 994.66 539.48 991.81 540.61 C 984.69 543.09 977.32 544.76 969.96 546.31 C 951.05 550.07 931.99 553.04 912.89 555.57 C 902.24 556.92 891.60 558.49 880.88 559.04 C 851.87 560.91 822.38 557.78 794.77 548.44 C 783.26 544.67 772.22 539.66 761.21 534.66 C 757.28 533.01 753.34 531.04 749.05 530.65 C 732.43 532.79 715.55 530.60 699.41 526.42 C 678.02 520.79 657.79 511.04 639.80 498.21 C 629.31 508.40 618.01 517.67 606.76 527.00 C 634.11 543.11 661.56 559.49 685.79 580.14 C 694.69 587.45 700.90 597.25 707.44 606.58 C 717.44 621.72 726.77 637.30 735.69 653.11 C 742.41 665.26 749.25 677.40 754.72 690.18 C 756.27 693.46 758.95 695.96 761.37 698.60 C 777.66 716.56 795.04 733.58 810.10 752.63 C 813.53 757.42 817.77 762.18 818.50 768.26 C 817.33 768.59 816.19 769.66 814.91 769.07 C 807.21 766.57 800.80 761.36 794.34 756.65 C 782.09 747.01 770.32 736.75 759.23 725.79 C 753.08 719.63 746.60 713.56 742.24 705.93 C 737.25 701.56 732.11 697.32 727.62 692.42 C 702.39 665.63 680.96 635.63 657.79 607.12 C 654.86 603.44 651.60 599.92 647.39 597.69 C 622.14 582.83 596.45 568.71 570.93 554.30 C 566.83 556.73 562.81 559.31 558.59 561.55 C 543.68 569.96 527.23 575.04 510.83 579.66 C 517.50 586.13 522.85 593.81 527.40 601.87 C 537.82 620.40 544.88 640.61 550.43 661.07 C 555.69 681.34 559.48 702.04 560.79 722.95 C 561.66 733.95 561.37 744.99 561.48 756.00 C 561.53 784.35 561.75 812.69 561.49 841.03 C 561.42 851.70 561.33 862.41 560.13 873.02 C 558.14 884.63 552.49 895.23 546.27 905.09 C 537.72 918.24 527.66 930.34 516.96 941.77 C 500.90 958.56 483.45 974.10 464.33 987.31 C 456.31 992.40 448.23 998.24 438.70 1000.00 L 436.12 1000.00 C 435.26 999.30 434.31 998.67 433.75 997.73 C 434.20 994.72 436.43 992.45 438.35 990.26 C 444.25 983.83 451.16 978.44 457.67 972.66 C 478.81 954.63 500.43 936.92 518.62 915.80 C 527.64 904.98 536.33 893.35 540.35 879.65 C 542.22 873.95 541.66 867.87 541.27 862.00 C 537.25 824.16 530.59 786.66 525.62 748.94 C 524.60 740.32 523.28 731.70 523.45 723.00 C 522.69 714.10 519.21 705.74 516.41 697.34 C 508.84 676.59 500.03 656.27 493.74 635.08 C 493.01 632.69 492.38 630.26 492.06 627.79 C 491.71 627.64 491.37 627.50 491.03 627.38 C 493.41 634.97 492.77 643.22 492.26 651.08 C 490.49 671.32 480.94 690.44 466.80 704.90 C 440.68 731.16 410.55 754.33 375.82 767.92 C 357.44 775.02 337.79 779.53 318.00 778.91 C 293.85 779.08 269.12 771.30 250.83 755.21 C 236.60 741.97 227.47 723.90 223.51 704.99 C 219.53 685.41 220.46 664.91 225.28 645.56 C 233.80 610.97 253.11 580.02 276.14 553.24 C 288.12 539.76 300.28 525.67 316.56 517.25 C 333.21 508.16 352.78 505.63 371.44 507.94 L 372.86 509.07 C 372.55 508.67 372.26 508.25 371.94 507.88 C 343.65 501.02 317.42 487.91 289.73 479.18 C 284.95 477.84 280.10 476.38 275.09 476.49 C 265.99 476.59 257.01 474.95 248.00 473.97 C 222.72 470.39 197.49 466.52 172.23 462.81 C 157.53 460.85 142.82 458.49 127.99 457.94 C 112.43 459.57 99.13 468.98 87.22 478.46 C 65.70 496.15 47.94 517.77 29.97 538.92 C 22.41 547.42 15.55 556.67 6.75 563.97 C 5.10 565.53 2.89 565.81 0.72 565.56 C 0.54 564.84 0.18 563.41 0.00 562.69 L 0.00 560.47 C 1.13 554.86 3.91 549.79 6.71 544.87 C 16.03 529.03 27.85 514.85 40.08 501.20 C 55.16 485.11 71.21 469.75 89.44 457.24 C 102.65 448.05 117.49 439.60 133.96 438.96 C 148.29 438.06 162.66 438.42 177.01 438.25 C 208.01 438.29 239.02 438.17 270.02 438.50 C 305.20 440.21 340.10 447.74 372.95 460.44 C 390.01 467.41 407.25 475.58 420.31 488.92 C 422.08 483.73 423.35 478.38 425.01 473.15 C 429.64 457.56 436.69 442.76 445.47 429.08 C 435.94 412.28 426.77 395.28 417.24 378.49 C 411.36 368.15 405.74 357.61 399.18 347.69 C 391.80 340.39 383.26 334.39 375.20 327.89 C 357.61 314.14 339.87 300.57 322.99 285.96 C 312.76 277.29 302.83 268.18 294.35 257.77 C 287.50 253.84 281.87 248.23 276.37 242.63 C 264.09 230.47 252.68 217.45 242.12 203.78 C 237.92 197.88 233.28 192.03 230.99 185.06 C 230.36 183.76 231.38 182.52 231.69 181.30 C 238.02 181.99 242.90 186.50 247.85 190.07 C 265.39 204.14 281.29 220.08 297.79 235.33 C 302.42 239.33 306.47 244.36 312.49 246.34 C 334.36 256.55 355.17 268.88 375.81 281.34 C 388.50 289.37 401.35 297.31 412.83 307.04 C 423.50 317.24 432.13 329.33 440.56 341.38 C 452.11 357.88 462.27 375.27 472.48 392.61 C 472.65 392.60 472.99 392.59 473.16 392.58 C 482.08 381.23 492.05 370.79 501.83 360.17 C 488.97 342.19 479.19 321.97 473.57 300.57 C 469.41 284.44 467.22 267.58 469.31 250.97 C 468.69 245.00 465.56 239.65 463.30 234.18 C 454.90 216.22 448.03 197.45 444.43 177.91 C 439.31 151.61 439.41 124.48 443.01 97.99 C 445.82 75.18 449.20 52.41 453.68 29.86 C 455.64 21.16 457.38 12.31 461.02 4.12 Z" />
<path fill="#ffffff" d=" M 718.80 199.86 C 725.99 197.25 733.41 195.33 740.92 193.90 C 752.91 191.83 766.24 195.72 773.57 205.81 C 775.07 207.95 774.42 210.68 774.30 213.10 C 771.09 221.27 764.73 227.56 758.86 233.86 C 739.08 253.39 718.33 271.93 698.80 291.72 C 692.82 298.10 686.76 304.41 680.53 310.54 C 673.13 317.89 664.73 325.62 653.98 327.10 C 647.06 327.70 640.70 323.82 636.04 319.02 C 627.75 310.55 619.19 302.10 613.07 291.86 C 609.25 285.54 606.94 277.75 609.13 270.46 C 611.25 263.25 617.20 258.22 622.82 253.68 C 637.96 241.09 654.00 229.45 671.46 220.28 C 686.69 212.27 702.64 205.74 718.80 199.86 Z" />
<path fill="#ffffff" d=" M 760.19 248.30 C 768.38 243.74 776.65 238.59 786.06 237.16 C 793.26 244.04 797.18 254.11 796.07 264.06 C 794.45 279.39 788.54 293.82 782.91 308.02 C 775.17 327.20 765.94 345.91 753.89 362.76 C 747.15 372.60 739.56 381.82 731.89 390.93 C 726.97 396.64 719.82 401.16 712.04 400.63 C 703.37 400.02 695.82 395.07 689.15 389.89 C 682.38 384.32 675.90 378.36 669.95 371.92 C 667.26 367.11 666.32 361.36 666.84 355.91 C 668.75 339.92 677.78 325.93 687.26 313.34 C 707.53 287.64 732.46 265.64 760.19 248.30 Z" />
<path fill="#ffffff" d=" M 542.45 341.75 C 553.58 335.70 566.18 331.96 578.93 332.52 C 592.10 332.51 606.78 332.86 617.36 341.83 C 620.48 343.93 622.26 347.30 623.34 350.81 C 624.20 360.33 618.47 368.77 613.00 376.02 C 599.05 393.65 581.39 407.78 565.57 423.62 C 544.40 445.09 523.48 466.80 501.85 487.80 C 490.52 498.23 479.60 509.24 466.93 518.07 C 462.73 521.30 456.70 522.57 451.91 519.85 C 444.92 516.07 441.24 508.39 438.91 501.13 C 435.38 489.31 435.20 476.13 439.83 464.57 C 448.14 445.37 459.45 427.61 471.80 410.78 C 480.93 398.39 490.98 386.71 501.72 375.69 C 513.52 362.47 526.78 350.25 542.45 341.75 Z" />
<path fill="#ffffff" d=" M 625.09 394.45 C 631.82 391.81 638.96 390.42 646.13 389.74 C 656.39 399.98 657.13 415.41 657.20 429.03 C 658.05 445.68 651.78 461.95 642.40 475.46 C 636.39 484.56 629.08 492.75 621.27 500.34 C 615.44 505.39 610.11 510.97 604.42 516.16 C 581.19 536.83 555.49 555.13 527.11 568.03 C 513.37 574.37 497.07 573.67 483.24 567.98 C 477.50 565.42 471.67 561.60 469.19 555.58 C 467.20 551.06 468.57 545.69 471.59 541.97 C 493.68 513.79 515.84 485.57 540.44 459.51 C 553.00 446.36 565.95 433.49 580.13 422.07 C 593.73 410.87 608.53 400.73 625.09 394.45 Z" />
<path fill="#ffffff" d=" M 87.22 478.46 C 99.13 468.98 112.43 459.57 127.99 457.94 C 142.82 458.49 157.53 460.85 172.23 462.81 C 197.49 466.52 222.72 470.39 248.00 473.97 C 257.01 474.95 265.99 476.59 275.09 476.49 C 280.10 476.38 284.95 477.84 289.73 479.18 C 317.42 487.91 343.65 501.02 371.94 507.88 C 372.26 508.25 372.55 508.67 372.86 509.07 L 371.44 507.94 C 352.78 505.63 333.21 508.16 316.56 517.25 C 300.28 525.67 288.12 539.76 276.14 553.24 C 253.11 580.02 233.80 610.97 225.28 645.56 C 220.46 664.91 219.53 685.41 223.51 704.99 C 227.47 723.90 236.60 741.97 250.83 755.21 C 269.12 771.30 293.85 779.08 318.00 778.91 C 337.79 779.53 357.44 775.02 375.82 767.92 C 410.55 754.33 440.68 731.16 466.80 704.90 C 480.94 690.44 490.49 671.32 492.26 651.08 C 492.77 643.22 493.41 634.97 491.03 627.38 C 491.37 627.50 491.71 627.64 492.06 627.79 C 492.38 630.26 493.01 632.69 493.74 635.08 C 500.03 656.27 508.84 676.59 516.41 697.34 C 519.21 705.74 522.69 714.10 523.45 723.00 C 523.28 731.70 524.60 740.32 525.62 748.94 C 530.59 786.66 537.25 824.16 541.27 862.00 C 541.66 867.87 542.22 873.95 540.35 879.65 C 536.33 893.35 527.64 904.98 518.62 915.80 C 500.43 936.92 478.81 954.63 457.67 972.66 C 451.16 978.44 444.25 983.83 438.35 990.26 C 436.43 992.45 434.20 994.72 433.75 997.73 C 434.31 998.67 435.26 999.30 436.12 1000.00 L 0.00 1000.00 L 0.00 562.69 C 0.18 563.41 0.54 564.84 0.72 565.56 C 2.89 565.81 5.10 565.53 6.75 563.97 C 15.55 556.67 22.41 547.42 29.97 538.92 C 47.94 517.77 65.70 496.15 87.22 478.46 Z" />
<path fill="#ffffff" d=" M 342.80 525.39 C 354.54 521.95 367.38 522.88 378.64 527.59 C 392.46 533.22 404.10 543.00 414.60 553.40 C 417.67 556.29 418.82 560.89 417.86 564.95 C 416.47 572.55 411.18 578.59 405.88 583.89 C 377.21 612.56 348.55 641.24 319.90 669.94 C 308.73 680.91 297.00 691.82 282.75 698.66 C 274.31 702.68 263.94 705.34 255.11 700.93 C 246.84 696.76 242.68 687.59 241.06 678.89 C 239.43 670.06 239.58 660.96 241.15 652.15 C 244.05 631.81 252.35 612.53 263.10 595.13 C 274.09 577.30 288.77 562.08 304.51 548.38 C 315.85 538.67 328.32 529.67 342.80 525.39 Z" />
<path fill="#ffffff" d=" M 423.61 594.80 C 428.29 594.67 434.50 591.63 438.04 595.99 C 451.17 609.60 463.47 625.74 466.03 645.03 C 467.95 658.76 463.21 672.46 456.29 684.16 C 448.42 697.25 438.06 708.60 427.45 719.50 C 410.79 736.24 390.99 750.00 369.07 758.90 C 351.40 766.05 332.13 770.58 313.01 768.21 C 304.36 766.88 295.14 763.63 290.01 756.08 C 284.90 748.72 285.84 738.92 288.94 730.95 C 293.75 718.24 302.51 707.54 311.52 697.56 C 338.78 670.34 360.08 637.40 390.03 612.85 C 399.96 604.85 410.99 597.57 423.61 594.80 Z" />
</svg>
